<?xml version="1.0" standalone="no"?>
<!DOCTYPE svg PUBLIC "-//W3C//DTD SVG 20010904//EN"
 "http://www.w3.org/TR/2001/REC-SVG-20010904/DTD/svg10.dtd">
<svg version="1.0" 
    xmlns="http://www.w3.org/2000/svg" width="45px" height="45px" viewBox="0 0 1030.000000 1031.000000" preserveAspectRatio="xMidYMid meet">>

    <g transform="translate(0.000000,1031.000000) scale(0.100000,-0.100000)" fill="#00d8b6" stroke="none">
        <path d="M4965 10273 c-672 -22 -1390 -202 -2031 -508 -296 -141 -685 -381
-939 -580 -787 -614 -1384 -1459 -1695 -2395 -137 -413 -225 -836 -260 -1245
-13 -156 -13 -626 0 -780 44 -507 171 -1049 356 -1509 588 -1461 1821 -2578
3324 -3011 299 -86 619 -153 835 -175 285 -29 923 -29 1185 0 268 29 707 132
1030 239 630 211 1221 550 1736 996 156 135 421 406 554 565 580 697 945 1478
1125 2409 56 293 76 643 63 1116 -7 279 -25 442 -73 685 -102 505 -241 918
-456 1350 -249 499 -534 900 -924 1299 -823 841 -1888 1364 -3079 1511 -153
19 -529 42 -626 38 -25 -1 -81 -3 -125 -5z m47 -715 c-289 -512 -432 -764
-735 -1293 -429 -751 -781 -1364 -1077 -1875 -336 -579 -326 -563 -337 -548
-45 58 -1203 2060 -1203 2079 0 36 397 449 601 625 433 373 964 666 1557 858
329 107 704 176 1066 195 77 5 145 9 149 10 5 0 -5 -23 -21 -51z m947 -28
c1083 -203 2060 -808 2730 -1689 84 -111 231 -324 231 -336 0 -7 -3183 -4
-3811 4 l-495 6 320 556 c494 855 861 1489 863 1489 0 0 74 -14 162 -30z
m-4452 -2690 c392 -671 1158 -1995 1773 -3066 l169 -294 -1217 0 -1218 0 -18
48 c-157 410 -238 747 -281 1177 -74 729 37 1507 302 2120 83 191 221 471 228
463 1 -2 120 -203 262 -448z m4905 -605 c187 -324 402 -702 478 -838 l138
-248 -100 -177 c-103 -183 -598 -1042 -765 -1330 l-95 -162 -926 2 -926 3
-174 300 c-447 772 -774 1350 -774 1370 0 15 134 256 437 785 150 261 326 568
391 682 l119 207 928 -2 929 -2 340 -590z m2873 558 c44 -105 140 -404 175
-547 90 -365 124 -664 124 -1086 1 -339 -12 -508 -60 -790 -47 -276 -147 -629
-245 -867 -52 -124 -228 -483 -237 -483 -4 0 -126 206 -271 458 -981 1697
-1888 3271 -1920 3330 l-12 22 1216 0 1215 0 15 -37z m-1513 -2913 c190 -327
461 -796 602 -1043 l258 -448 -27 -35 c-90 -119 -411 -442 -586 -590 -666
-568 -1519 -942 -2334 -1023 -105 -11 -428 -31 -432 -27 -6 5 764 1355 1067
1872 146 250 770 1331 989 1716 58 102 109 183 113 180 3 -4 161 -275 350
-602z m-2110 -1102 c-11 -18 -208 -359 -437 -758 -384 -668 -694 -1196 -731
-1245 -14 -19 -15 -19 -152 4 -624 105 -1308 404 -1858 811 -329 244 -647 560
-891 885 -80 106 -223 317 -223 328 0 4 970 7 2156 7 l2156 0 -20 -32z"/>
    </g>
</svg>
