<?xml version="1.0" encoding="utf-8"?>
<!-- Generator: Adobe Illustrator 25.2.3, SVG Export Plug-In . SVG Version: 6.00 Build 0)  -->
<svg version="1.1" id="Layer_1" xmlns="http://www.w3.org/2000/svg" xmlns:xlink="http://www.w3.org/1999/xlink" x="0px" y="0px"
	 viewBox="0 0 45 45" style="enable-background:new 0 0 45 45;" xml:space="preserve">
<style type="text/css">
	.st0{fill:#00D8B6;}
</style>
<g transform="translate(0.000000,1031.000000) scale(0.100000,-0.100000)">
	<path class="st0" d="M226.8,10308.6c-4.2,0.2-20.6-0.8-27.3-1.7c-52-6.4-98.5-29.2-134.4-66c-17-17.4-29.5-34.9-40.3-56.7
		c-9.4-18.9-15.5-36.9-19.9-58.9c-2.1-10.6-2.9-17.7-3.2-29.9c-0.6-20.6,0.3-35.9,2.7-48.7c7.9-40.6,23.8-74.7,49.1-105.1
		c5.8-6.9,17.4-18.8,24.2-24.7c22.5-19.5,48.3-34.3,75.8-43.5c14.1-4.7,33.3-9.2,45-10.4c11.4-1.3,39.3-1.3,51.7,0
		c9.4,1,23.4,3.9,36.4,7.6c65.6,18.9,119.4,67.7,145.1,131.4c8.1,20.1,13.6,43.7,15.5,65.9c0.6,6.7,0.6,27.2,0,34
		c-1.5,17.9-5.4,36.3-11.3,54.3c-13.6,40.9-39.6,77.7-74,104.5c-11.1,8.7-28.1,19.2-41,25.3c-28,13.4-59.3,21.2-88.6,22.2
		C230.4,10308.5,227.9,10308.6,226.8,10308.6z M229.3,10279.4c0.2,0,3.1-0.2,6.5-0.4c15.8-0.8,32.2-3.8,46.5-8.5
		c25.9-8.4,49.1-21.2,68-37.4c8.9-7.7,26.2-25.7,26.2-27.3c0-0.8-50.5-88.2-52.5-90.7c-0.5-0.7,0-1.4-14.7,23.9
		c-12.9,22.3-28.3,49.1-47,81.8c-13.2,23.1-19.5,34.1-32.1,56.4C229.5,10278.4,229.1,10279.4,229.3,10279.4z M196,10277.3
		c0.1,0,16.1-27.7,37.7-65l14-24.3l-21.6-0.3c-27.4-0.3-166.3-0.5-166.3-0.2c0,0.5,6.4,9.8,10.1,14.7
		c29.2,38.5,71.9,64.9,119.2,73.7C192.7,10276.7,196,10277.3,196,10277.3z M394.7,10178.1c0.3,0.3,6.3-11.9,10-20.2
		c11.6-26.8,16.4-60.7,13.2-92.5c-1.9-18.8-5.4-33.5-12.3-51.4l-0.8-2.1h-53.2h-53.1l7.4,12.8c26.8,46.7,60.3,104.5,77.4,133.8
		C389.4,10169.2,394.6,10178,394.7,10178.1z M184,10157.9l40.5,0.1l40.5,0.1l5.2-9c2.8-5,10.5-18.4,17.1-29.8
		c13.2-23.1,19.1-33.6,19.1-34.3c0-0.9-14.3-26.1-33.8-59.8l-7.6-13.1l-40.4-0.1l-40.4-0.1l-4.1,7.1c-7.3,12.6-28.9,50.1-33.4,58.1
		l-4.4,7.7l6,10.8c3.3,5.9,12.7,22.4,20.9,36.6L184,10157.9z M44.4,10158.1h53h53.1l-0.5-1c-1.4-2.6-41-71.3-83.8-145.3
		c-6.3-11-11.7-20-11.8-20c-0.4,0-8.1,15.7-10.3,21.1c-4.3,10.4-8.6,25.8-10.7,37.8c-2.1,12.3-2.7,19.7-2.6,34.5
		c0,18.4,1.5,31.5,5.4,47.4c1.5,6.2,5.7,19.3,7.6,23.9L44.4,10158.1z M125.1,10055.6c0.2,0.1,2.4-3.4,4.9-7.9
		c9.6-16.8,36.8-64,43.2-74.9c13.2-22.6,46.8-81.5,46.6-81.7c-0.2-0.2-14.3,0.7-18.9,1.2c-35.6,3.5-72.8,19.9-101.9,44.7
		c-7.6,6.5-21.6,20.6-25.6,25.8l-1.2,1.5l11.3,19.6c6.2,10.8,18,31.3,26.3,45.5C118,10043.6,124.9,10055.5,125.1,10055.6z
		 M201,9982.6h94.1c51.8,0,94.1-0.1,94.1-0.3c0-0.5-6.2-9.7-9.7-14.3c-10.6-14.2-24.5-28-38.9-38.6c-24-17.8-53.9-30.8-81.1-35.4
		c-6-1-6-1-6.6-0.2c-1.6,2.1-15.1,25.2-31.9,54.3c-10,17.4-18.6,32.3-19.1,33.1L201,9982.6z"/>
</g>
</svg>
